# xmcd
#
# Track frame offsets: 
#        150
#        17200
#        32235
#        48270
#        62472
#        77940
#        94365
#        107212
#        125362
#        135535
#        151505
#        165710
#        179290
#        191620
#        206012
#        219485
#        234940
#        245380
#        260677
#        272532
#        287732
#
# Disc length: 4023 seconds
#
# Revision: 1
# Processed by: cddbd v1.5.2PL0 Copyright (c) Steve Scherf et al.
# Submitted via: ExactAudioCopy v0.95b4
#
DISCID=260fb515
DTITLE=judita cerovska - je po desti
DYEAR=2001
DGENRE=Oldies
TTITLE0=rekni, kde ty kytky jsou
TTITLE1=je po desti
TTITLE2=mesicni reka
TTITLE3=veci tak blahove
TTITLE4=me oci rikaji
TTITLE5=co dal
TTITLE6=ruzova krinolina
TTITLE7=pisnicka z krajkovi
TTITLE8=maly vuz
TTITLE9=muj ideal
TTITLE10=pisen pod polstar
TTITLE11=tisice tvari
TTITLE12=svatebni den
TTITLE13=dominiku
TTITLE14=mesic v modrem
TTITLE15=orion
TTITLE16=cmelak v base
TTITLE17=jak zvlastni
TTITLE18=pozitri k veceru
TTITLE19=jmeno tve
TTITLE20=slib, ze sejdem se
EXTD=
EXTT0=
EXTT1=
EXTT2=
EXTT3=
EXTT4=
EXTT5=
EXTT6=
EXTT7=
EXTT8=
EXTT9=
EXTT10=
EXTT11=
EXTT12=
EXTT13=
EXTT14=
EXTT15=
EXTT16=
EXTT17=
EXTT18=
EXTT19=
EXTT20=
PLAYORDER=
